<?xml version="1.0" encoding="UTF-8"?>
<svg version="1.1" xmlns="http://www.w3.org/2000/svg" width="100" height="66">
<path d="M0 0 C11.52164009 -0.3690205 11.52164009 -0.3690205 17 2 C17 2.66 17 3.32 17 4 C17.99 4 18.98 4 20 4 C20 4.66 20 5.32 20 6 C20.99 6.33 21.98 6.66 23 7 C24.1875 9.5625 24.1875 9.5625 25 12 C23.35 12.33 21.7 12.66 20 13 C20 13.99 20 14.98 20 16 C22.97 16 25.94 16 29 16 C29.495 17.98 29.495 17.98 30 20 C29.01 21.485 29.01 21.485 28 23 C28.66 23 29.32 23 30 23 C30 25 30 27 30 29 C31.65 29.33 33.3 29.66 35 30 C35.33 29.34 35.66 28.68 36 28 C37.65 28.33 39.3 28.66 41 29 C41 29.66 41 30.32 41 31 C42.98 30.67 44.96 30.34 47 30 C47.495 31.98 47.495 31.98 48 34 C49.32 34 50.64 34 52 34 C52 35.98 52 37.96 52 40 C52.99 40 53.98 40 55 40 C54.7215625 41.2065625 54.7215625 41.2065625 54.4375 42.4375 C54.293125 43.283125 54.14875 44.12875 54 45 C54.33 45.33 54.66 45.66 55 46 C55.04063832 47.66617115 55.042721 49.33388095 55 51 C54.01 51 53.02 51 52 51 C52.495 53.97 52.495 53.97 53 57 C51.35 57 49.7 57 48 57 C48 58.65 48 60.3 48 62 C47.01 62.495 47.01 62.495 46 63 C44.515 62.505 44.515 62.505 43 62 C42.34 62.99 41.68 63.98 41 65 C39.515 64.505 39.515 64.505 38 64 C38 63.34 38 62.68 38 62 C37.01 62.66 36.02 63.32 35 64 C32.8125 63.625 32.8125 63.625 31 63 C31 62.01 31 61.02 31 60 C29.02 60.33 27.04 60.66 25 61 C24.67 60.34 24.34 59.68 24 59 C24.33 58.01 24.66 57.02 25 56 C23.35 55.67 21.7 55.34 20 55 C20.33 53.35 20.66 51.7 21 50 C20.34 49.67 19.68 49.34 19 49 C18.33333333 47.33333333 17.66666667 45.66666667 17 44 C16.01 43.505 16.01 43.505 15 43 C14.4375 41.1875 14.4375 41.1875 14 39 C13.814375 38.38125 13.62875 37.7625 13.4375 37.125 C12.87480063 34.39188876 12.93677185 31.78203873 13 29 C12.89042969 29.63808594 12.78085937 30.27617187 12.66796875 30.93359375 C12.43013672 32.17302734 12.43013672 32.17302734 12.1875 33.4375 C12.03667969 34.26121094 11.88585938 35.08492187 11.73046875 35.93359375 C11.48941406 36.61550781 11.24835937 37.29742187 11 38 C10.01 38.33 9.02 38.66 8 39 C6.30117552 41.49759982 6.30117552 41.49759982 5 44 C2 43 2 43 0.5625 41.0625 C-1.06436272 38.5987457 -1.06436272 38.5987457 -5 37 C-4.505 32.05 -4.505 32.05 -4 27 C-4.66 27 -5.32 27 -6 27 C-6 27.89203125 -6 28.7840625 -6 29.703125 C-6 34.46875 -6 39.234375 -6 44 C-6.66 44 -7.32 44 -8 44 C-8.68707555 46.49064888 -9 48.37886292 -9 51 C-9.3062434 52.33981486 -9.63451555 53.67511887 -10 55 C-10.99 55 -11.98 55 -13 55 C-13 56.65 -13 58.3 -13 60 C-14.65 60 -16.3 60 -18 60 C-18.33 61.65 -18.66 63.3 -19 65 C-20.0828125 64.7215625 -20.0828125 64.7215625 -21.1875 64.4375 C-24.15685423 63.97560045 -26.10335998 64.31395368 -29 65 C-31.62113708 65 -33.50935112 64.68707555 -36 64 C-36 62.68 -36 61.36 -36 60 C-37.65 60 -39.3 60 -41 60 C-41.495 58.515 -41.495 58.515 -42 57 C-41.67 56.34 -41.34 55.68 -41 55 C-42.32 54.67 -43.64 54.34 -45 54 C-44.814375 53.113125 -44.62875 52.22625 -44.4375 51.3125 C-44.01957516 48.14821189 -44.19222258 46.05160358 -45 43 C-44.01 43 -43.02 43 -42 43 C-42.33 41.02 -42.66 39.04 -43 37 C-41.68 37 -40.36 37 -39 37 C-38.67 35.35 -38.34 33.7 -38 32 C-36.824375 32.0928125 -36.824375 32.0928125 -35.625 32.1875 C-34.75875 32.125625 -33.8925 32.06375 -33 32 C-32.34 31.01 -31.68 30.02 -31 29 C-30.38125 29.165 -29.7625 29.33 -29.125 29.5 C-25.27093613 30.40683856 -22.68999854 29.28347775 -19 28 C-19.66 27.34 -20.32 26.68 -21 26 C-20.625 23.5 -20.625 23.5 -20 21 C-20 20.34 -20 19.68 -20 19 C-19.68197057 17.33034549 -19.35015049 15.66321482 -19 14 C-16.36 14 -13.72 14 -11 14 C-11.33 15.010625 -11.66 16.02125 -12 17.0625 C-13.64442473 22.87671601 -13.38041261 27.46459608 -11 33 C-10.98018066 32.43490723 -10.96036133 31.86981445 -10.93994141 31.28759766 C-10.84481764 28.73292003 -10.73508942 26.17907459 -10.625 23.625 C-10.57859375 22.29082031 -10.57859375 22.29082031 -10.53125 20.9296875 C-10.49257813 20.07890625 -10.45390625 19.228125 -10.4140625 18.3515625 C-10.3826416 17.56604004 -10.3512207 16.78051758 -10.31884766 15.97119141 C-10 14 -10 14 -8 12 C-4.375 11.875 -4.375 11.875 -1 12 C-1 10.68 -1 9.36 -1 8 C1.64 8.33 4.28 8.66 7 9 C7.495 10.485 7.495 10.485 8 12 C11.3 11.67 14.6 11.34 18 11 C18 10.34 18 9.68 18 9 C16.88625 8.566875 16.88625 8.566875 15.75 8.125 C13 7 13 7 11.1875 5.9375 C7.86926622 4.51539981 4.58514351 4.35851435 1 4 C0.505 2.02 0.505 2.02 0 0 Z M11 15 C11.33 16.65 11.66 18.3 12 20 C12.66 20 13.32 20 14 20 C14 18.68 14 17.36 14 16 C13.01 15.67 12.02 15.34 11 15 Z M-6 16 C-6 17.65 -6 19.3 -6 21 C-5.34 20.67 -4.68 20.34 -4 20 C-4.33 18.68 -4.66 17.36 -5 16 C-5.33 16 -5.66 16 -6 16 Z M22 18 C17.72868035 24.40697948 16.57895849 31.42125279 17 39 C21.01126609 35.68033151 22.96174529 32.04169448 24 27 C23.95246463 23.93396876 23.5780499 21.00864525 23 18 C22.67 18 22.34 18 22 18 Z M25 18 C25 18.66 25 19.32 25 20 C25.99 19.67 26.98 19.34 28 19 C27.01 18.67 26.02 18.34 25 18 Z M-19 23 C-19 23.66 -19 24.32 -19 25 C-18.01 25 -17.02 25 -16 25 C-16 24.34 -16 23.68 -16 23 C-16.99 23 -17.98 23 -19 23 Z M26 24 C26 24.66 26 25.32 26 26 C26.99 25.67 27.98 25.34 29 25 C28.01 24.67 27.02 24.34 26 24 Z M-18 30 C-18 30.66 -18 31.32 -18 32 C-17.01 32 -16.02 32 -15 32 C-15 31.34 -15 30.68 -15 30 C-15.99 30 -16.98 30 -18 30 Z M25 30 C25 30.66 25 31.32 25 32 C25.66 31.67 26.32 31.34 27 31 C26.34 30.67 25.68 30.34 25 30 Z M29 38 C31.64458379 39.32229189 33.67761301 39.09677194 36.625 39.0625 C37.62789062 39.05347656 38.63078125 39.04445313 39.6640625 39.03515625 C40.43492188 39.02355469 41.20578125 39.01195312 42 39 C42.33 37.68 42.66 36.36 43 35 C37.54675182 32.27337591 32.55573408 33.25902122 29 38 Z M-14 35 C-13 37 -13 37 -13 37 Z M-30 35 C-35.36710824 38.1696602 -35.36710824 38.1696602 -39 43 C-39.5709141 47.28978511 -39.71715653 50.77485759 -37.5 54.5625 C-37.005 55.036875 -36.51 55.51125 -36 56 C-33.66869101 51.98953494 -33.66869101 51.98953494 -33.0625 47.5 C-33 45 -33 45 -30.9375 41.9375 C-28.71945586 39.25100808 -28.71945586 39.25100808 -29.25 36.625 C-29.4975 36.08875 -29.745 35.5525 -30 35 Z M23 36 C24 38 24 38 24 38 Z M-21 37 C-21.76504326 38.80523606 -21.76504326 38.80523606 -22 41 C-20.89570789 43.00084143 -20.89570789 43.00084143 -19.1875 44.75 C-18.64480469 45.36359375 -18.10210938 45.9771875 -17.54296875 46.609375 C-16.0985844 48.22316135 -16.0985844 48.22316135 -14 48 C-14.28387505 43.93112431 -14.77462715 42.25917878 -17.5 39.125 C-19.58013969 36.8920586 -19.58013969 36.8920586 -21 37 Z M45 37 C45 37.66 45 38.32 45 39 C45.66 38.67 46.32 38.34 47 38 C46.34 37.67 45.68 37.34 45 37 Z M27 39 C24.53065915 42.70401128 24.55071567 45.70587865 25 50 C25.86265968 52.40557853 25.86265968 52.40557853 27 54 C28.44207941 51.11584117 28.09394887 48.58278472 28.0625 45.375 C28.04896484 43.59222656 28.04896484 43.59222656 28.03515625 41.7734375 C28.02355469 40.85820313 28.01195313 39.94296875 28 39 C27.67 39 27.34 39 27 39 Z M-10 40 C-10.33 40.99 -10.66 41.98 -11 43 C-10.01 42.67 -9.02 42.34 -8 42 C-8.66 41.34 -9.32 40.68 -10 40 Z M19 40 C19 43 19 43 19 43 Z M47 40 C46.67 44.29 46.34 48.58 46 53 C43.36 53 40.72 53 38 53 C39.32 53.33 40.64 53.66 42 54 C42 54.66 42 55.32 42 56 C37.71 55.67 33.42 55.34 29 55 C32.10160708 58.10160708 33.578504 58.73717749 37.8671875 59.1328125 C41.73953592 58.89167725 43.89758241 57.29578902 47 55 C48.85540912 52.08172407 49.27296252 49.80789726 49.25 46.375 C49.25515625 45.59898438 49.2603125 44.82296875 49.265625 44.0234375 C49.17915354 41.77311589 49.17915354 41.77311589 47 40 Z M-22 44 C-22.33 45.32 -22.66 46.64 -23 48 C-22.34 48 -21.68 48 -21 48 C-21 48.66 -21 49.32 -21 50 C-22.98 50.33 -24.96 50.66 -27 51 C-26.67 51.66 -26.34 52.32 -26 53 C-25.030625 53.144375 -24.06125 53.28875 -23.0625 53.4375 C-22.051875 53.623125 -21.04125 53.80875 -20 54 C-19.01 55.485 -19.01 55.485 -18 57 C-15.41222792 53.94419026 -15.41222792 53.94419026 -15 50 C-15.598125 49.7525 -16.19625 49.505 -16.8125 49.25 C-19.28647521 47.83629988 -20.43370255 46.34944617 -22 44 Z M-32 55 C-32.33 56.32 -32.66 57.64 -33 59 C-29.82253509 60.58873246 -26.45987798 60.41026221 -23 60 C-20.5404226 58.66169042 -20.5404226 58.66169042 -19 57 C-22.44807703 53.55192297 -27.49445874 53.37800515 -32 55 Z " fill="#010101" transform="translate(45,0)"/>
<path d="M0 0 C0.94875 0.04125 1.8975 0.0825 2.875 0.125 C3.37 1.115 3.37 1.115 3.875 2.125 C2.905625 2.104375 1.93625 2.08375 0.9375 2.0625 C-1.99965895 1.76881501 -1.99965895 1.76881501 -3.125 3.125 C-3.28214654 4.75756758 -3.37585414 6.39635338 -3.44140625 8.03515625 C-3.50424805 9.51918945 -3.50424805 9.51918945 -3.56835938 11.03320312 C-3.60767578 12.07412109 -3.64699219 13.11503906 -3.6875 14.1875 C-3.75227539 15.75467773 -3.75227539 15.75467773 -3.81835938 17.35351562 C-3.92481225 19.94386884 -4.0268276 22.53432186 -4.125 25.125 C-3.465 25.125 -2.805 25.125 -2.125 25.125 C-2.125 17.865 -2.125 10.605 -2.125 3.125 C-1.135 3.125 -0.145 3.125 0.875 3.125 C0.545 4.775 0.215 6.425 -0.125 8.125 C0.205 8.125 0.535 8.125 0.875 8.125 C0.875 10.435 0.875 12.745 0.875 15.125 C0.215 15.125 -0.445 15.125 -1.125 15.125 C-1.125 16.01703125 -1.125 16.9090625 -1.125 17.828125 C-1.125 22.59375 -1.125 27.359375 -1.125 32.125 C-1.785 32.125 -2.445 32.125 -3.125 32.125 C-3.81207555 34.61564888 -4.125 36.50386292 -4.125 39.125 C-4.4312434 40.46481486 -4.75951555 41.80011887 -5.125 43.125 C-6.115 43.125 -7.105 43.125 -8.125 43.125 C-8.125 44.775 -8.125 46.425 -8.125 48.125 C-9.775 48.125 -11.425 48.125 -13.125 48.125 C-13.455 49.775 -13.785 51.425 -14.125 53.125 C-15.2078125 52.8465625 -15.2078125 52.8465625 -16.3125 52.5625 C-19.28185423 52.10060045 -21.22835998 52.43895368 -24.125 53.125 C-26.74613708 53.125 -28.63435112 52.81207555 -31.125 52.125 C-31.125 50.805 -31.125 49.485 -31.125 48.125 C-32.775 48.125 -34.425 48.125 -36.125 48.125 C-36.62 46.64 -36.62 46.64 -37.125 45.125 C-36.795 44.465 -36.465 43.805 -36.125 43.125 C-37.445 42.795 -38.765 42.465 -40.125 42.125 C-39.939375 41.238125 -39.75375 40.35125 -39.5625 39.4375 C-39.14457516 36.27321189 -39.31722258 34.17660358 -40.125 31.125 C-39.135 31.125 -38.145 31.125 -37.125 31.125 C-37.455 29.145 -37.785 27.165 -38.125 25.125 C-36.805 25.125 -35.485 25.125 -34.125 25.125 C-33.795 23.475 -33.465 21.825 -33.125 20.125 C-31.949375 20.2178125 -31.949375 20.2178125 -30.75 20.3125 C-29.88375 20.250625 -29.0175 20.18875 -28.125 20.125 C-27.465 19.135 -26.805 18.145 -26.125 17.125 C-25.50625 17.29 -24.8875 17.455 -24.25 17.625 C-20.39593613 18.53183856 -17.81499854 17.40847775 -14.125 16.125 C-14.785 15.465 -15.445 14.805 -16.125 14.125 C-15.75 11.625 -15.75 11.625 -15.125 9.125 C-15.125 8.465 -15.125 7.805 -15.125 7.125 C-14.80697057 5.45534549 -14.47515049 3.78821482 -14.125 2.125 C-11.485 2.125 -8.845 2.125 -6.125 2.125 C-6.455 3.135625 -6.785 4.14625 -7.125 5.1875 C-8.76942473 11.00171601 -8.50541261 15.58959608 -6.125 21.125 C-6.10518066 20.55990723 -6.08536133 19.99481445 -6.06494141 19.41259766 C-5.96981764 16.85792003 -5.86008942 14.30407459 -5.75 11.75 C-5.7190625 10.86054688 -5.688125 9.97109375 -5.65625 9.0546875 C-5.61757813 8.20390625 -5.57890625 7.353125 -5.5390625 6.4765625 C-5.5076416 5.69104004 -5.4762207 4.90551758 -5.44384766 4.09619141 C-4.86078661 0.4915705 -3.47734088 0.13909364 0 0 Z M-14.125 11.125 C-14.125 11.785 -14.125 12.445 -14.125 13.125 C-13.135 13.125 -12.145 13.125 -11.125 13.125 C-11.125 12.465 -11.125 11.805 -11.125 11.125 C-12.115 11.125 -13.105 11.125 -14.125 11.125 Z M-13.125 18.125 C-13.125 18.785 -13.125 19.445 -13.125 20.125 C-12.135 20.125 -11.145 20.125 -10.125 20.125 C-10.125 19.465 -10.125 18.805 -10.125 18.125 C-11.115 18.125 -12.105 18.125 -13.125 18.125 Z M-9.125 23.125 C-8.125 25.125 -8.125 25.125 -8.125 25.125 Z M-25.125 23.125 C-30.49210824 26.2946602 -30.49210824 26.2946602 -34.125 31.125 C-34.6959141 35.41478511 -34.84215653 38.89985759 -32.625 42.6875 C-32.13 43.161875 -31.635 43.63625 -31.125 44.125 C-28.79369101 40.11453494 -28.79369101 40.11453494 -28.1875 35.625 C-28.125 33.125 -28.125 33.125 -26.0625 30.0625 C-23.84445586 27.37600808 -23.84445586 27.37600808 -24.375 24.75 C-24.6225 24.21375 -24.87 23.6775 -25.125 23.125 Z M-16.125 25.125 C-16.89004326 26.93023606 -16.89004326 26.93023606 -17.125 29.125 C-16.02070789 31.12584143 -16.02070789 31.12584143 -14.3125 32.875 C-13.76980469 33.48859375 -13.22710938 34.1021875 -12.66796875 34.734375 C-11.2235844 36.34816135 -11.2235844 36.34816135 -9.125 36.125 C-9.40887505 32.05612431 -9.89962715 30.38417878 -12.625 27.25 C-14.70513969 25.0170586 -14.70513969 25.0170586 -16.125 25.125 Z M-5.125 28.125 C-5.455 29.115 -5.785 30.105 -6.125 31.125 C-5.135 30.795 -4.145 30.465 -3.125 30.125 C-3.785 29.465 -4.445 28.805 -5.125 28.125 Z M-17.125 32.125 C-17.455 33.445 -17.785 34.765 -18.125 36.125 C-17.465 36.125 -16.805 36.125 -16.125 36.125 C-16.125 36.785 -16.125 37.445 -16.125 38.125 C-18.105 38.455 -20.085 38.785 -22.125 39.125 C-21.795 39.785 -21.465 40.445 -21.125 41.125 C-20.155625 41.269375 -19.18625 41.41375 -18.1875 41.5625 C-17.176875 41.748125 -16.16625 41.93375 -15.125 42.125 C-14.135 43.61 -14.135 43.61 -13.125 45.125 C-10.53722792 42.06919026 -10.53722792 42.06919026 -10.125 38.125 C-10.723125 37.8775 -11.32125 37.63 -11.9375 37.375 C-14.41147521 35.96129988 -15.55870255 34.47444617 -17.125 32.125 Z M-27.125 43.125 C-27.455 44.445 -27.785 45.765 -28.125 47.125 C-24.94753509 48.71373246 -21.58487798 48.53526221 -18.125 48.125 C-15.6654226 46.78669042 -15.6654226 46.78669042 -14.125 45.125 C-17.57307703 41.67692297 -22.61945874 41.50300515 -27.125 43.125 Z " fill="#030303" transform="translate(40.125,11.875)"/>
<path d="M0 0 C2.64 0.33 5.28 0.66 8 1 C8.33 1.99 8.66 2.98 9 4 C14.445 4.495 14.445 4.495 20 5 C19.67 5.66 19.34 6.32 19 7 C18.84693099 8.81171098 18.75053339 10.6283794 18.68359375 12.4453125 C18.64169922 13.52167969 18.59980469 14.59804688 18.55664062 15.70703125 C18.51732422 16.83496094 18.47800781 17.96289062 18.4375 19.125 C18.39431641 20.26066406 18.35113281 21.39632813 18.30664062 22.56640625 C18.2003396 25.37747768 18.09830595 28.18863945 18 31 C16.68 30.67 15.36 30.34 14 30 C14 27.03 14 24.06 14 21 C13.83564453 21.95712891 13.83564453 21.95712891 13.66796875 22.93359375 C13.50941406 23.75988281 13.35085937 24.58617188 13.1875 25.4375 C13.03667969 26.26121094 12.88585937 27.08492187 12.73046875 27.93359375 C12.48941406 28.61550781 12.24835937 29.29742187 12 30 C11.01 30.33 10.02 30.66 9 31 C7.30117552 33.49759982 7.30117552 33.49759982 6 36 C3 35 3 35 1.5625 33.0625 C-0.06436272 30.5987457 -0.06436272 30.5987457 -4 29 C-3.67 21.74 -3.34 14.48 -3 7 C-3.99 7 -4.98 7 -6 7 C-6 14.26 -6 21.52 -6 29 C-6.66 29 -7.32 29 -8 29 C-8.05787784 25.37506666 -8.0935542 21.75025143 -8.125 18.125 C-8.14175781 17.09246094 -8.15851562 16.05992188 -8.17578125 14.99609375 C-8.18222656 14.00996094 -8.18867187 13.02382813 -8.1953125 12.0078125 C-8.20578613 11.09660645 -8.21625977 10.18540039 -8.22705078 9.24658203 C-8 7 -8 7 -6 5 C-2.875 5.375 -2.875 5.375 0 6 C0 4.02 0 2.04 0 0 Z M12 7 C12.33 8.65 12.66 10.3 13 12 C13.66 12 14.32 12 15 12 C15 10.68 15 9.36 15 8 C14.01 7.67 13.02 7.34 12 7 Z " fill="#565656" transform="translate(44,8)"/>
<path d="M0 0 C0.125 2.375 0.125 2.375 0 5 C-0.66 5.66 -1.32 6.32 -2 7 C-1.01 7 -0.02 7 1 7 C1 7.66 1 8.32 1 9 C0.01 9.495 0.01 9.495 -1 10 C-0.34 10.33 0.32 10.66 1 11 C1 12.32 1 13.64 1 15 C-0.32 15.33 -1.64 15.66 -3 16 C-3 16.66 -3 17.32 -3 18 C-8.19209404 18.21192221 -12.126739 17.5912689 -17 16 C-18.0024305 10.65370398 -17.84888195 6.37625234 -17 1 C-14.72926348 0.83201949 -12.45840707 0.66565887 -10.1875 0.5 C-8.29064453 0.36078125 -8.29064453 0.36078125 -6.35546875 0.21875 C-4.24021483 0.08085219 -2.11974408 0 0 0 Z " fill="#3A3A3A" transform="translate(90,38)"/>
<path d="M0 0 C3.875 0.875 3.875 0.875 5 2 C5.33 2.66 5.66 3.32 6 4 C4.35 4 2.7 4 1 4 C1.66 5.65 2.32 7.3 3 9 C3.66 9 4.32 9 5 9 C4.67 8.34 4.34 7.68 4 7 C4.33 6.34 4.66 5.68 5 5 C6.32 5 7.64 5 9 5 C8.67 5.99 8.34 6.98 8 8 C8.99 8 9.98 8 11 8 C11.66 8.66 12.32 9.32 13 10 C15.60280568 9.67958603 15.60280568 9.67958603 18 9 C18 10.32 18 11.64 18 13 C16.68 13.33 15.36 13.66 14 14 C14 14.66 14 15.32 14 16 C8.80790596 16.21192221 4.873261 15.5912689 0 14 C-0.91297308 9.02936879 -0.91297308 4.97063121 0 0 Z " fill="#646464" transform="translate(73,40)"/>
<path d="M0 0 C0.680625 0.165 1.36125 0.33 2.0625 0.5 C6.78782666 1.30431092 11.39646983 1.47312965 16 0 C16.66 1.65 17.32 3.3 18 5 C5.51480638 7.48063781 5.51480638 7.48063781 -1 6 C-0.67 4.02 -0.34 2.04 0 0 Z " fill="#000000" transform="translate(42,44)"/>
<path d="M0 0 C2.31 0 4.62 0 7 0 C6.67 0.66 6.34 1.32 6 2 C5.84693099 3.81171098 5.75053339 5.6283794 5.68359375 7.4453125 C5.64169922 8.52167969 5.59980469 9.59804688 5.55664062 10.70703125 C5.49766602 12.39892578 5.49766602 12.39892578 5.4375 14.125 C5.37272461 15.82849609 5.37272461 15.82849609 5.30664062 17.56640625 C5.2003396 20.37747768 5.09830595 23.18863945 5 26 C3.68 25.67 2.36 25.34 1 25 C1.33 17.74 1.66 10.48 2 3 C1.34 3 0.68 3 0 3 C0 2.01 0 1.02 0 0 Z " fill="#414141" transform="translate(57,13)"/>
<path d="M0 0 C1.32 0.33 2.64 0.66 4 1 C4.16922842 5.39993884 4.04657256 8.14762812 2 12 C1.61250787 14.32495277 1.27017161 16.65851268 1 19 C0.67 19 0.34 19 0 19 C0 12.73 0 6.46 0 0 Z " fill="#010101" transform="translate(55,19)"/>
<path d="M0 0 C0.33 1.65 0.66 3.3 1 5 C-3.625 8 -3.625 8 -7 8 C-7 7.34 -7 6.68 -7 6 C-7.66 6 -8.32 6 -9 6 C-8 3 -8 3 -5.0625 1.3125 C-2 -0 -2 -0 0 0 Z " fill="#000000" transform="translate(44,0)"/>
<path d="M0 0 C1.32 0 2.64 0 4 0 C3.67 0.99 3.34 1.98 3 3 C3.99 3 4.98 3 6 3 C6.66 3.66 7.32 4.32 8 5 C10.10820797 4.6814823 10.10820797 4.6814823 12 4 C12 4.99 12 5.98 12 7 C7.38 7 2.76 7 -2 7 C-0.68 6.34 0.64 5.68 2 5 C1.01 4.01 0.02 3.02 -1 2 C-0.67 1.34 -0.34 0.68 0 0 Z " fill="#DBDBDB" transform="translate(78,45)"/>
<path d="M0 0 C0.99 0 1.98 0 3 0 C3 0.66 3 1.32 3 2 C3.66 2 4.32 2 5 2 C3.92598892 4.91517292 3.22189824 6.77810176 1 9 C0.01 8.67 -0.98 8.34 -2 8 C-1.125 2.25 -1.125 2.25 0 0 Z " fill="#878787" transform="translate(15,41)"/>
<path d="M0 0 C1 2 1 2 0.0625 5.125 C-0.288125 6.07375 -0.63875 7.0225 -1 8 C0.65 7.67 2.3 7.34 4 7 C4 7.99 4 8.98 4 10 C3.34 10 2.68 10 2 10 C1.67 10.99 1.34 11.98 1 13 C-0.32 13 -1.64 13 -3 13 C-3.4726477 4.80743982 -3.4726477 4.80743982 -1.5 1.4375 C-0.7575 0.7259375 -0.7575 0.7259375 0 0 Z " fill="#4C4C4C" transform="translate(14,41)"/>
<path d="M0 0 C2.31 0 4.62 0 7 0 C6.67 0.66 6.34 1.32 6 2 C5.34 2 4.68 2 4 2 C4 9.26 4 16.52 4 24 C3.67 24 3.34 24 3 24 C3 16.74 3 9.48 3 2 C2.01 2 1.02 2 0 2 C0 1.34 0 0.68 0 0 Z " fill="#DCDCDC" transform="translate(57,13)"/>
<path d="M0 0 C0.66 1.32 1.32 2.64 2 4 C1.34 4.66 0.68 5.32 0 6 C0.99 6.33 1.98 6.66 3 7 C1.02 7.33 -0.96 7.66 -3 8 C-3.433125 6.824375 -3.433125 6.824375 -3.875 5.625 C-4.84912254 2.90328368 -4.84912254 2.90328368 -7 1 C-3.535 0.505 -3.535 0.505 0 0 Z " fill="#DCDCDC" transform="translate(88,39)"/>
<path d="M0 0 C3 2 3 2 4 5 C5.65 5 7.3 5 9 5 C7.35 6.65 5.7 8.3 4 10 C0 4 0 4 0 0 Z " fill="#737373" transform="translate(82,41)"/>
<path d="M0 0 C4 1 4 1 5 2 C5.33 2.66 5.66 3.32 6 4 C4.35 4 2.7 4 1 4 C1.33 6.31 1.66 8.62 2 11 C1.34 11 0.68 11 0 11 C0 7.37 0 3.74 0 0 Z " fill="#CDCDCD" transform="translate(73,40)"/>
<path d="M0 0 C2.125 0.9375 2.125 0.9375 4 2 C3.34 3.32 2.68 4.64 2 6 C0.68 5.34 -0.64 4.68 -2 4 C-2 3.01 -2 2.02 -2 1 C-1.34 0.67 -0.68 0.34 0 0 Z " fill="#000000" transform="translate(33,6)"/>
<path d="M0 0 C2 0 4 0 6 0 C5.34 1.65 4.68 3.3 4 5 C2.68 4.67 1.36 4.34 0 4 C0 2.68 0 1.36 0 0 Z " fill="#B0B0B0" transform="translate(13,45)"/>
</svg>
